<?xml version="1.0" standalone="no"?><!DOCTYPE svg PUBLIC "-//W3C//DTD SVG 1.1//EN" "http://www.w3.org/Graphics/SVG/1.1/DTD/svg11.dtd"><svg t="1537236279832" class="icon" style="" viewBox="0 0 3341 1024" version="1.1" xmlns="http://www.w3.org/2000/svg" p-id="2471" xmlns:xlink="http://www.w3.org/1999/xlink" width="652.5390625" height="200"><defs><style type="text/css"></style></defs><path d="M2225.852632 528.168421l5.389473-113.178947h-48.505263l-10.778947 21.557894c-10.778947 21.557895-26.947368 32.336842-48.505263 32.336843h-86.231579l53.894736-118.568422c10.778947-16.168421 26.947368-26.947368 48.505264-26.947368h86.231579l-16.168421 37.726316h312.589473l-5.389473 59.28421h-172.463158l-5.389474 97.010527v10.778947h199.410526l-5.389473 53.894737h-204.8c-37.726316 123.957895-150.905263 215.578947-280.252632 215.578947l5.389474-64.673684c86.231579 0 161.684211-64.673684 172.463158-150.905263h-188.631579l5.389473-48.505263h183.242106z m296.421052 377.263158h-592.842105c-5.389474 0-16.168421 0-21.557895-5.389474-5.389474 0-16.168421-5.389474-21.557895-10.778947-5.389474-5.389474-10.778947-10.778947-10.778947-16.168421-5.389474-5.389474-5.389474-10.778947-5.389474-21.557895L1907.873684 269.473684c0-10.778947 5.389474-16.168421 5.389474-21.557895l16.168421-16.168421c5.389474-5.389474 10.778947-5.389474 21.557895-10.778947 5.389474 0 16.168421-5.389474 21.557894-5.389474h592.842106l-5.389474 59.284211h-538.947368l-37.726316 565.894737h544.336842l-5.389474 64.673684z m-107.789473-269.473684c16.168421 0 26.947368 5.389474 32.336842 21.557894l59.28421 129.347369h-97.010526c-16.168421 0-26.947368-5.389474-32.336842-21.557895L2317.473684 635.957895h97.010527z m339.536842-140.126316l-5.389474 140.126316h80.842105l10.778948-145.51579h-86.231579z m5.389473-53.894737h80.842106l10.778947-150.905263h-80.842105l-10.778948 150.905263z m-16.168421 242.526316l-10.778947 156.294737h80.842105l10.778948-156.294737h-80.842106z m-140.126316 161.68421h21.557895l32.336842-538.947368c5.389474-48.505263 43.115789-80.842105 86.231579-80.842105h134.736842c43.115789 0 80.842105 37.726316 75.452632 80.842105l-32.336842 538.947368h21.557895l-5.389474 53.894737h-344.926316l10.778947-53.894737z m377.263158-528.168421h70.063158l16.168421-102.4h107.789474l-16.168421 102.4H3233.684211c43.115789 0 80.842105 37.726316 75.452631 80.842106l-26.947368 447.326315c0 10.778947-5.389474 16.168421-5.389474 21.557895l-16.168421 16.168421c-5.389474 5.389474-10.778947 5.389474-21.557895 10.778948-5.389474 0-16.168421 5.389474-21.557895 5.389473h-97.010526l5.389474-59.28421h48.505263l26.947368-463.494737h-53.894736L3072 900.042105h-107.789474L3039.663158 377.263158h-59.284211V317.978947z m-1288.08421-21.557894h-177.852632l-10.778947 129.347368H1778.526316L1773.136842 485.052632h-53.894737l21.557895 414.989473h-113.178947L1611.452632 485.052632h-107.789474l-26.947369 414.989473h-107.789473l21.557895-414.989473h-107.789474l-75.452632 414.989473h-113.178947L1169.515789 485.052632h-53.894736l5.389473-64.673685h274.863158l10.778948-129.347368h-253.305264c0-37.726316 37.726316-75.452632 86.231579-75.452632h538.947369c-5.389474 43.115789-43.115789 80.842105-86.231579 80.842106zM517.389474 916.210526v53.894737c0 32.336842-21.557895 53.894737-53.894737 53.894737h-16.168421c-32.336842 0-53.894737-21.557895-53.894737-53.894737v-53.894737C177.852632 916.210526 0 738.357895 0 522.778947V183.242105C0 80.842105 80.842105 0 183.242105 0H269.473684c32.336842 0 53.894737 21.557895 53.894737 53.894737v16.168421c0 32.336842-21.557895 53.894737-53.894737 53.894737H183.242105c-32.336842 0-59.284211 26.947368-59.28421 59.28421v339.536842c0 150.905263 118.568421 269.473684 269.473684 269.473685h129.347368c145.515789 0 269.473684-118.568421 269.473685-269.473685V183.242105c0-32.336842-26.947368-59.284211-59.284211-59.28421H646.736842c-32.336842 0-53.894737-21.557895-53.894737-53.894737V53.894737c0-32.336842 21.557895-53.894737 53.894737-53.894737h86.231579C835.368421 0 916.210526 80.842105 916.210526 183.242105v339.536842c-5.389474 215.578947-177.852632 393.431579-398.821052 393.431579z" fill="#FFFFFF" p-id="2472"></path><path d="M323.368421 215.578947h269.473684v123.957895H323.368421z" fill="#FFFFFF" p-id="2473"></path></svg>