<?xml version="1.0" encoding="utf-8"?>
<!-- Generator: Adobe Illustrator 21.0.0, SVG Export Plug-In . SVG Version: 6.00 Build 0)  -->
<svg version="1.1" id="图层_1" xmlns="http://www.w3.org/2000/svg" xmlns:xlink="http://www.w3.org/1999/xlink" x="0px" y="0px"
	 viewBox="0 0 68 68" style="enable-background:new 0 0 68 68;" xml:space="preserve">
<style type="text/css">
	.st0{fill:#FFFFFF;}
	.st1{fill:url(#Fill-618_1_);}
	.st2{fill:url(#Fill-619_1_);}
	.st3{fill:#19C8FE;}
	.st4{fill:url(#Fill-629_1_);}
	.st5{fill:#18A7EF;}
</style>
<title>logo</title>
<desc>Created with Sketch.</desc>
<path id="Fill-617" class="st0" d="M59.2,17.5V28h-0.1c-0.3-1.2-1.4-2.1-2.7-2.1H14.7c-1.5,0-2.8-1.3-2.8-2.8v-5.6
	c0-1.6,1.3-2.8,2.8-2.8h41.7C57.9,14.6,59.2,15.9,59.2,17.5"/>
<linearGradient id="Fill-618_1_" gradientUnits="userSpaceOnUse" x1="-497.509" y1="86.4487" x2="-497.509" y2="87.362" gradientTransform="matrix(18.7696 0 0 14.4 9388.6445 -1209.7821)">
	<stop  offset="0" style="stop-color:#B4F4FF"/>
	<stop  offset="1" style="stop-color:#7DE5FF"/>
</linearGradient>
<path id="Fill-618" class="st1" d="M59.2,35.1v13.2H48.1c-3.3,0-6.1-2.7-6.1-6.1v-1c0-3.4,2.7-6.1,6.1-6.1
	C48.1,35.1,59.2,35.1,59.2,35.1z"/>
<linearGradient id="Fill-619_1_" gradientUnits="userSpaceOnUse" x1="-514.906" y1="51.7393" x2="-515.7128" y2="50.8554" gradientTransform="matrix(51.7748 0 0 40.1143 26715.8359 -2014.8556)">
	<stop  offset="0" style="stop-color:#24DBFE"/>
	<stop  offset="1" style="stop-color:#12BDFE"/>
</linearGradient>
<path id="Fill-619" class="st2" d="M59.2,48v8c0,1.6-1.3,3.8-2.8,3.8H14.7c-1.5,0-2.8-2.2-2.8-3.8V23.1c0,1.6,1.3,2.8,2.8,2.8h41.7
	c1.3,0,2.4,0.9,2.7,2.1c0.1,0.2,0.1,0.4,0.1,0.7v7H48.9c-3.1,0-5.6,2.5-5.6,5.6v0.9c0,3.1,2.5,5.6,5.6,5.6h10.3V48z"/>
<path class="st3" d="M53.7,20.7H18.6c-0.3,0-0.6-0.3-0.6-0.6s0.3-0.6,0.6-0.6h35.1c0.3,0,0.6,0.3,0.6,0.6S54.1,20.7,53.7,20.7z"/>
<linearGradient id="Fill-629_1_" gradientUnits="userSpaceOnUse" x1="-496.2877" y1="75.5459" x2="-497.0945" y2="74.662" gradientTransform="matrix(18.3006 0 0 18.36 9125.6768 -1369.724)">
	<stop  offset="0" style="stop-color:#24DBFE"/>
	<stop  offset="1" style="stop-color:#12BDFE"/>
</linearGradient>
<path id="Fill-629" class="st4" d="M35.6,0.4c4.6,0,8.4,3.8,8.4,8.4s-3.7,8.4-8.4,8.4s-8.4-3.8-8.4-8.4S30.9,0.4,35.6,0.4"/>
<path id="Fill-639" class="st0" d="M6,57l1.4-0.7h0.1l-0.3,1.5L8.4,59l-1.6,0.2L6,60.7l-0.7-1.5L3.8,59c0,0-0.1-0.1,0-0.1l1.1-1.1
	l-0.3-1.6L6,57z"/>
<path id="Fill-640" class="st0" d="M11.2,64.4c0,0.5-0.4,0.9-0.9,0.9s-1-0.3-1-0.9s0.4-0.9,0.9-0.9S11.2,63.9,11.2,64.4"/>
<path id="Fill-641" class="st0" d="M55.4,65.4c0,0.5-0.4,0.9-0.9,0.9s-0.9-0.4-0.9-0.9s0.4-0.9,0.9-0.9S55.4,64.9,55.4,65.4"/>
<path class="st0" d="M63.7,64.7h-1.2v-1.2c0-0.3-0.3-0.6-0.6-0.6c-0.3,0-0.6,0.3-0.6,0.6v1.2h-1.1c-0.3,0-0.6,0.3-0.6,0.6
	s0.3,0.6,0.6,0.6h1.1V67c0,0.3,0.3,0.6,0.6,0.6c0.4,0,0.6-0.2,0.6-0.6v-1.1h1.2c0.3,0,0.6-0.3,0.6-0.6S64,64.7,63.7,64.7z"/>
<path class="st0" d="M39,4.1c-0.2-0.2-0.6-0.2-0.9,0l-2.8,3.2l-2.8-3.1c-0.2-0.2-0.6-0.3-0.9,0c-0.2,0.2-0.3,0.6,0,0.9l2.7,3h-1.5
	c-0.3,0-0.6,0.3-0.6,0.6s0.3,0.6,0.6,0.6h2V10h-2c-0.3,0-0.6,0.3-0.6,0.6s0.3,0.6,0.6,0.6h2v2.1c0,0.3,0.3,0.6,0.6,0.6
	s0.6-0.3,0.6-0.6v-2.1h1.9c0.3,0,0.6-0.3,0.6-0.6S38.2,10,37.9,10H36V9.2h1.9c0.3,0,0.6-0.3,0.6-0.6S38.2,8,37.9,8h-1.5l2.7-3
	C39.3,4.7,39.3,4.4,39,4.1z"/>
<path id="Fill-620" class="st5" d="M49.7,40.8c0.8,0,1.4,0.6,1.4,1.4s-0.6,1.4-1.4,1.4s-1.4-0.6-1.4-1.4S48.9,40.8,49.7,40.8"/>
</svg>
