<?xml version="1.0" encoding="utf-8"?>
<!-- Generator: Adobe Illustrator 21.0.0, SVG Export Plug-In . SVG Version: 6.00 Build 0)  -->
<svg version="1.1" id="图层_1" xmlns="http://www.w3.org/2000/svg" xmlns:xlink="http://www.w3.org/1999/xlink" x="0px" y="0px"
	 viewBox="0 0 93 86" style="enable-background:new 0 0 93 86;" xml:space="preserve">
<style type="text/css">
	.st0{fill:#FFFFFF;}
	.st1{fill:url(#Fill-486_1_);}
	.st2{fill:#F6F7FA;}
	.st3{fill:url(#Fill-491_1_);}
	.st4{fill:#4CDFFF;}
	.st5{fill:#14C0FE;}
	.st6{fill:none;stroke:#FFFFFF;stroke-width:1.6;stroke-linecap:round;}
	.st7{fill:#15C2FE;}
	.st8{fill:#ECFBFF;}
	.st9{fill:url(#SVGID_1_);}
	.st10{fill:url(#SVGID_2_);}
</style>
<title>business idea</title>
<desc>Created with Sketch.</desc>
<path id="Fill-484" class="st0" d="M4,79.3l2.3-1.2c0.1,0,0.1,0,0.1,0.1L6,80.8l2,2l-2.8,0.4L4,85.6l-1.2-2.5l-2.6-0.4
	c-0.1,0-0.1-0.1,0-0.1L2,80.8L1.5,78L4,79.3z"/>
<path id="Fill-485" class="st0" d="M19.2,84.2c0,0.9-0.7,1.6-1.6,1.6c-0.9,0-1.6-0.7-1.6-1.6c0-0.9,0.7-1.6,1.6-1.6
	C18.4,82.6,19.2,83.3,19.2,84.2"/>
<linearGradient id="Fill-486_1_" gradientUnits="userSpaceOnUse" x1="-246.5601" y1="447.4199" x2="-247.4434" y2="448.3877" gradientTransform="matrix(71.2 0 0 -24.52 17632.2031 11045.4521)">
	<stop  offset="0" style="stop-color:#24DBFE"/>
	<stop  offset="1" style="stop-color:#12BDFE"/>
</linearGradient>
<path id="Fill-486" class="st1" d="M59.2,48.9l12.3,1c6.6,0.6,11.7,6.1,11.7,12.8v10.7h-3.6H14.8H12V62.6c0-6.7,5-12.2,11.7-12.8
	l12.3-1v2.9c1.1,0.9,5.4,4.4,11.9,4.3c6.1-0.1,10.2-3.3,11.3-4.3V48.9z"/>
<path id="Fill-487" class="st2" d="M38.4,43.9c2,1.7,4.6,2.7,7.3,2.7h0.4H47h1.9c2.7,0,5.2-1,7.3-2.7l2-1.7l0.3,0.4v5.8v2.7
	c-1.1,0.9-4.8,3.8-10.3,3.9c-6.1,0.2-10.2-3-11.2-3.9v-2.7v-5.1C37.5,43.5,38,43.7,38.4,43.9"/>
<path id="Fill-488" class="st0" d="M66.7,22.8c0.2,1.2,0.2,2.8,0,4.5c-0.3,2.3-1,4.2-1.6,5.4c-0.1,0.3-0.4,0.4-0.7,0.4h-1.1
	c-0.3,0-0.6,0.2-0.7,0.6l-0.5,2.8c-0.5,2.7-1.9,5.1-4,6.9l-0.5,0.5l-1.9,1.7c-2,1.7-4.4,2.6-7,2.6h-1.8H46h-0.4
	c-2.6,0-5.1-0.9-7-2.6l-1.1-1l-1.4-1.2c-2.1-1.8-3.5-4.2-4-6.9l-0.5-2.8c-0.1-0.3-0.4-0.6-0.7-0.6h-1.1c-0.3,0-0.5-0.2-0.7-0.4
	c-0.6-1.3-1.3-3.1-1.6-5.4c-0.2-1.7-0.1-3.2,0-4.5c0.1-1.1,1.1-1.9,2.1-1.9H30c0.4,0,0.7-0.3,0.7-0.7v-4.9c0-4.3,1.9-8.4,5.2-11.1
	c3.1-2.5,7-4.1,11.2-4.1h0.1c4.1,0,8.1,1.6,11.2,4.1c3.3,2.7,5.3,6.8,5.3,11.1v4.9c0,0.4,0.2,0.7,0.6,0.7h0.4
	C65.7,21,66.6,21.8,66.7,22.8"/>
<g id="Group-6" transform="translate(71.000000, 23.000000)">
	
		<linearGradient id="Fill-491_1_" gradientUnits="userSpaceOnUse" x1="-309.3938" y1="422.3488" x2="-310.277" y2="423.3166" gradientTransform="matrix(21.56 0 0 -21.56 6691.7417 9127.6025)">
		<stop  offset="0" style="stop-color:#24DBFE"/>
		<stop  offset="1" style="stop-color:#12BDFE"/>
	</linearGradient>
	<path id="Fill-491" class="st3" d="M0.4,10.8C0.4,4.8,5.3,0,11.2,0C17.2,0,22,4.8,22,10.8s-4.8,10.8-10.8,10.8
		C5.3,21.6,0.4,16.7,0.4,10.8"/>
</g>
<path id="Fill-497" class="st4" d="M74.5,54c2.7,0.2,5.3,1.2,7.2,2.9c-1.9-3.8-5.9-6.6-10.5-6.9c-0.9-0.1-1.6-0.1-2-0.2
	c-2.3-0.2-5.8-0.5-10.5-0.9V53L74.5,54z"/>
<path id="Fill-498" class="st5" d="M14.7,68.2c0-6.7,5.3-12.2,11.9-12.8l9.6-1.6c-0.2-0.4,0.4-1.6-0.6-2.1v-2.9l-12.3,1
	c-6.6,0.6-11.7,6.1-11.7,12.8v10.6h3V68.2z"/>
<path id="Stroke-504" class="st6" d="M6.4,67.7c0,1.1-0.9,2-2,2s-2-0.9-2-2c0-1.1,0.9-2,2-2S6.4,66.6,6.4,67.7z"/>
<rect id="Rectangle-3" x="44" y="24" class="st7" width="5" height="1"/>
<g id="Rectangle-11">
	<g>
		<path id="path-3" class="st8" d="M33.2,22h10.6c1.1,0,2,0.9,2,2c0,0.1,0,0.1,0,0.2l-0.3,3.3c-0.3,3.1-2.9,5.5-6,5.5h-2
			c-3.1,0-5.7-2.4-6-5.5l-0.3-3.3c-0.1-1.1,0.7-2.1,1.8-2.2C33.1,22,33.1,22,33.2,22z"/>
	</g>
	
		<linearGradient id="SVGID_1_" gradientUnits="userSpaceOnUse" x1="-232.0712" y1="425.8484" x2="-232.0712" y2="425.315" gradientTransform="matrix(13.62 0 0 -10 3199.3005 4283.3999)">
		<stop  offset="0" style="stop-color:#14C0FE"/>
		<stop  offset="1" style="stop-color:#1FD3FE"/>
	</linearGradient>
	<path class="st9" d="M39.5,33h-2c-3.1,0-5.7-2.4-6-5.5l-0.3-3.3c0-0.5,0.1-1.1,0.5-1.5c0.3-0.4,0.8-0.7,1.4-0.7c0.1,0,0.1,0,0.2,0
		h10.6c1.1,0,2,0.9,2,2c0,0.1,0,0.1,0,0.2l-0.3,3.3C45.2,30.6,42.6,33,39.5,33z M33.2,23L33.2,23c-0.4,0-0.6,0.2-0.8,0.4
		s-0.3,0.5-0.2,0.7l0.3,3.3c0.2,2.6,2.4,4.6,5,4.6h2c2.6,0,4.8-2,5-4.6l0.3-3.3c0-0.6-0.4-1.1-1-1.1H33.2z"/>
</g>
<g id="Rectangle-11_1_">
	<g>
		<path id="path-4" class="st8" d="M50.2,22h10.6c1.1,0,2,0.9,2,2c0,0.1,0,0.1,0,0.2l-0.3,3.3c-0.3,3.1-2.9,5.5-6,5.5h-2
			c-3.1,0-5.7-2.4-6-5.5l-0.3-3.3c-0.1-1.1,0.7-2.1,1.8-2.2C50.1,22,50.1,22,50.2,22z"/>
	</g>
	
		<linearGradient id="SVGID_2_" gradientUnits="userSpaceOnUse" x1="-232.0712" y1="425.8484" x2="-232.0712" y2="425.315" gradientTransform="matrix(13.62 0 0 -10 3216.301 4283.3999)">
		<stop  offset="0" style="stop-color:#14C0FE"/>
		<stop  offset="1" style="stop-color:#1FD3FE"/>
	</linearGradient>
	<path class="st10" d="M56.5,33h-2c-3.1,0-5.7-2.4-6-5.5l-0.3-3.3c0-0.5,0.1-1.1,0.5-1.5c0.3-0.4,0.8-0.7,1.4-0.7c0.1,0,0.1,0,0.2,0
		h10.6c1.1,0,2,0.9,2,2c0,0.1,0,0.1,0,0.2l-0.3,3.3C62.2,30.6,59.6,33,56.5,33z M50.2,23L50.2,23c-0.4,0-0.6,0.2-0.8,0.4
		s-0.3,0.5-0.2,0.7l0.3,3.3c0.2,2.6,2.4,4.6,5,4.6h2c2.6,0,4.8-2,5-4.6l0.3-3.3c0-0.6-0.4-1.1-1-1.1H50.2z"/>
</g>
<g id="Group-7" transform="translate(79.000000, 29.000000)">
	<path class="st0" d="M3.8,10.4c-0.4,0-0.7-0.3-0.7-0.7V3.8c0-0.4,0.3-0.7,0.7-0.7s0.7,0.3,0.7,0.7v5.9C4.5,10.1,4.2,10.4,3.8,10.4z
		"/>
	<path class="st0" d="M4.3,4.5H3.1l-3.5-3.8c-0.2-0.3-0.2-0.7,0-0.9c0.3-0.2,0.7-0.2,0.9,0l3.1,3.4l3.1-3.5c0.2-0.3,0.7-0.3,0.9,0
		c0.3,0.2,0.3,0.7,0,0.9L4.3,4.5z"/>
	<path class="st0" d="M6.5,5.2H0.9c-0.4,0-0.7-0.3-0.7-0.7s0.3-0.7,0.7-0.7h5.6c0.4,0,0.7,0.3,0.7,0.7S6.9,5.2,6.5,5.2z"/>
	<path class="st0" d="M6.5,7.4H0.9c-0.4,0-0.7-0.3-0.7-0.7s0.3-0.7,0.7-0.7h5.6c0.4,0,0.7,0.3,0.7,0.7S6.9,7.4,6.5,7.4z"/>
</g>
</svg>
