<?xml version="1.0" encoding="UTF-8"?>
<svg width="110px" height="77px" viewBox="0 0 110 77" version="1.1" xmlns="http://www.w3.org/2000/svg" xmlns:xlink="http://www.w3.org/1999/xlink">
    <!-- Generator: Sketch 49.1 (51147) - http://www.bohemiancoding.com/sketch -->
    <title>business deal</title>
    <desc>Created with Sketch.</desc>
    <defs>
        <linearGradient x1="97.3835137%" y1="100%" x2="9.05560355%" y2="3.2257314%" id="linearGradient-1">
            <stop stop-color="#24DBFE" offset="0%"></stop>
            <stop stop-color="#12BDFE" offset="100%"></stop>
        </linearGradient>
    </defs>
    <g id="UI稿" stroke="none" stroke-width="1" fill="none" fill-rule="evenodd">
        <g id="医生招募" transform="translate(-1167.000000, -1633.000000)">
            <g id="Group-8" transform="translate(-60.000000, 1080.000000)">
                <g id="business-deal" transform="translate(1227.000000, 553.000000)">
                    <path d="M28.2844981,50.9388973 C29.7384111,52.2117544 29.9169619,54.3524687 28.7755126,55.7088973 L28.4758024,56.0688973 L27.0920343,57.7017544 C25.9569619,59.0517544 23.8462372,59.2188973 22.3668169,57.9974687 C22.3476865,57.978183 22.3285561,57.9653259 22.3094256,57.9460402 C22.2839184,57.9267544 22.2584111,57.9010402 22.2329039,57.8817544 C20.7853677,56.6088973 20.6004401,54.4746116 21.7418894,53.118183 L23.0300053,51.588183 L23.4253677,51.1188973 C24.5668169,49.7688973 26.6839184,49.6017544 28.1569619,50.8296116 C28.1760923,50.8488973 28.1952227,50.8617544 28.2143532,50.8810402 C28.2398604,50.9003259 28.2653677,50.9196116 28.2844981,50.9388973" id="Fill-511" fill="#FFFFFF"></path>
                    <path d="M34.5540725,55.7945714 C36.294942,57.3374286 36.4033478,60.3202857 34.534942,62.1074286 L32.436971,64.6017143 C31.014942,66.286 28.4642174,66.5688571 26.7361014,65.1417143 C26.7105942,65.116 26.685087,65.0967143 26.6595797,65.0774286 C26.6340725,65.0517143 26.6021884,65.0324286 26.5766812,65.0067143 C24.8804493,63.5152857 24.7337826,60.9181429 26.1621884,59.2274286 L28.2665362,56.7331429 C28.374942,56.5724286 28.4897246,56.4245714 28.6108841,56.2831429 C30.1795797,54.5024286 32.9024783,54.3352857 34.5540725,55.7945714" id="Fill-513" fill="#FFFFFF"></path>
                    <path d="M40.9308841,62.1652857 C42.6271159,63.6438571 42.8439275,66.1445714 41.5047971,67.7324286 L39.5407391,70.0595714 C38.2079855,71.641 35.7401594,71.8402857 34.0184203,70.4067143 C33.992913,70.3874286 33.9737826,70.3681429 33.9482754,70.3488571 C33.9163913,70.3231429 33.8908841,70.2974286 33.859,70.2717143 C32.1691449,68.7867143 31.9523333,66.2924286 33.2914638,64.7045714 L35.0833478,62.5767143 L35.2555217,62.371 C36.5882754,60.796 39.0624783,60.5967143 40.7842174,62.0367143 C40.8097246,62.056 40.8288551,62.0752857 40.8543623,62.0945714 C40.8798696,62.1138571 40.9053768,62.1395714 40.9308841,62.1652857" id="Fill-515" fill="#FFFFFF"></path>
                    <path d="M47.5308841,67.456 C49.0932029,68.8252857 49.2908841,71.1395714 48.0601594,72.6052857 L46.2427681,74.7652857 C45.0120435,76.2245714 42.7291449,76.4045714 41.134942,75.0802857 C41.1094348,75.061 41.0903043,75.0481429 41.0647971,75.0288571 C41.0392899,75.0031429 41.0137826,74.9838571 40.9882754,74.9581429 C39.4259565,73.5824286 39.2218986,71.2745714 40.459,69.8088571 L41.912913,68.0795714 L42.2763913,67.6488571 C43.5071159,66.1895714 45.7963913,66.0095714 47.3905942,67.3338571 C47.4097246,67.3531429 47.4352319,67.3724286 47.4543623,67.3917143 C47.4798696,67.411 47.5053768,67.4367143 47.5308841,67.456" id="Fill-517" fill="#FFFFFF"></path>
                    <polygon id="Fill-519" fill="url(#linearGradient-1)" points="86.1980328 47.5971429 79.3019672 29.0185714 78 25.5021429 97 18 97 49.1914286 88.1727869 52.9264286"></polygon>
                    <path d="M40.8161014,31.2917143 L43.979,27.2481429 C44.1575507,27.0167143 44.4126232,26.856 44.6995797,26.7917143 L55.4572609,24.5288571 C56.974942,23.9438571 58.6584203,23.9631429 60.1633478,24.5867143 L73.4526232,30.3467143 C75.0468261,29.871 76.641029,29.3952857 78.2352319,28.9195714 L79.2491449,28.5274286 L86.3082754,47.106 L82.3801594,49.5424286 L81.1047971,54.0424286 L66.2276957,45.6338571 L66.2787101,45.396 C65.0224783,45.1388571 63.4856667,44.6117143 61.9743623,43.5445714 C58.1355217,40.8381429 57.3320435,36.6852857 57.179,35.8302857 L49.2207391,35.8302857 C48.9656667,36.2674286 46.8676957,39.6552857 42.6334928,40.221 C38.699,40.7545714 35.9378406,38.4467143 35.5105942,38.0802857 L40.8161014,31.2917143 Z" id="Fill-520" fill="#FFFFFF"></path>
                    <path d="M41.8161014,33.2917143 L44.979,29.2481429 C45.1575507,29.0167143 45.4126232,28.856 45.6995797,28.7917143 L56.4572609,26.5288571 C57.974942,25.9438571 59.6584203,25.9631429 61.1633478,26.5867143 L74.4526232,32.3467143 C76.0468261,31.871 77.641029,31.3952857 79.2352319,30.9195714 L80.2491449,30.5274286 L87.3082754,49.106 L83.3801594,51.5424286 L82.1047971,56.0424286 L67.2276957,47.6338571 L67.2787101,47.396 C66.0224783,47.1388571 64.4856667,46.6117143 62.9743623,45.5445714 C59.1355217,42.8381429 58.3320435,38.6852857 58.179,37.8302857 L50.2207391,37.8302857 C49.9656667,38.2674286 47.8676957,41.6552857 43.6334928,42.221 C39.699,42.7545714 36.9378406,40.4467143 36.5105942,40.0802857 L41.8161014,33.2917143 Z" id="Fill-520" fill="#AEEEFF"></path>
                    <path d="M58.0387101,70.1717143 L57.9366812,70.371 C58.4213188,72.0102857 58.1853768,73.746 57.2352319,75.0445714 C57.2224783,75.0638571 57.2097246,75.0767143 57.196971,75.096 C55.9853768,76.7095714 53.7471159,77.1274286 51.9616087,76.2017143 C50.3100145,75.3467143 49.685087,75.051 47.2427681,73.7652857 L49.0601594,71.6052857 C50.2908841,70.1395714 50.0932029,67.8252857 48.5308841,66.456 C48.5053768,66.4367143 48.4798696,66.411 48.4543623,66.3917143 C48.4352319,66.3724286 48.4097246,66.3531429 48.3905942,66.3338571 C46.7963913,65.0095714 44.5071159,65.1895714 43.2763913,66.6488571 L42.912913,67.0795714 L42.5047971,66.7324286 C43.8439275,65.1445714 43.6271159,62.6438571 41.9308841,61.1652857 C41.9053768,61.1395714 41.8798696,61.1138571 41.8543623,61.0945714 C41.8288551,61.0752857 41.8097246,61.056 41.7842174,61.0367143 C40.0624783,59.5967143 37.5882754,59.796 36.2555217,61.371 L36.0833478,61.5767143 L35.534942,61.1074286 C37.4033478,59.3202857 37.294942,56.3374286 35.5540725,54.7945714 C33.9024783,53.3352857 31.1795797,53.5024286 29.6108841,55.2831429 L29.3621884,55.071 L29.6618986,54.711 C30.8033478,53.3545714 30.6247971,51.2138571 29.1708841,49.941 C29.1517536,49.9217143 29.1262464,49.9024286 29.1007391,49.8831429 C29.0816087,49.8638571 29.0624783,49.851 29.0433478,49.8317143 C27.5703043,48.6038571 25.4532029,48.771 24.3117536,50.121 L23.9163913,50.5902857 L23.4381304,50.1852857 L18.2792899,49.491 L25.0514638,28.1931429 L29.374942,29.5688571 L41.8161014,30.006 L36.5105942,38.0802857 C36.9378406,38.4467143 39.699,40.7545714 43.6334928,40.221 C47.8676957,39.6552857 49.9656667,36.2674286 50.2207391,35.8302857 L58.179,35.8302857 C58.3320435,36.6852857 59.1355217,40.8381429 62.9743623,43.5445714 C64.4856667,44.6117143 66.0224783,45.1388571 67.2787101,45.396 L67.2276957,45.6338571 L82.1047971,54.0424286 C84.3047971,55.0645714 85.2995797,57.7067143 84.3366812,59.9374286 C83.3674058,62.181 80.7465362,63.2352857 78.5018986,62.2902857 C77.7685652,61.9045714 77.0288551,61.5124286 76.2955217,61.1331429 C76.7801594,62.7017143 76.5888551,64.3795714 75.7279855,65.7231429 C75.7152319,65.7424286 75.7024783,65.7617143 75.6897246,65.781 C74.5100145,67.5617143 72.1314638,68.076 70.2503043,67.086 C69.485087,66.6874286 68.7198696,66.2824286 67.961029,65.8838571 L67.7824783,66.231 C68.0184203,67.4974286 68.0821884,69.4838571 66.8004493,71.1874286 C66.7876957,71.2002857 66.7813188,71.2131429 66.7685652,71.226 C65.6334928,72.6981429 63.5801594,73.0774286 61.934942,72.216 C60.6340725,71.5345714 59.3395797,70.8531429 58.0387101,70.1717143" id="Fill-522" fill="#FFFFFF"></path>
                    <polygon id="Fill-524" fill="url(#linearGradient-1)" points="25.0514638 26.9074286 19.5546522 45.6338571 16.9018986 54.0424286 9.00102899 51.2845714 9.00102899 18.0617143 25.9888551 23.9374286"></polygon>
                    <polygon id="Fill-538" fill="#4CDFFF" points="25.0114493 27.0342321 25.0513043 26.9072679 25.9886957 23.9372679 9.00086957 18.0615536 8.9642029 22.7696786"></polygon>
                    <polygon id="Fill-540" fill="#4CDFFF" points="78.6325435 25.011 79.5531957 29.1011786 97.7980507 20.7231429 97.7980507 17.5088571"></polygon>
                    <path d="M109.206246,51.5638929 C109.206246,52.4518393 108.492841,53.1710357 107.612043,53.1710357 C106.731246,53.1710357 106.017841,52.4518393 106.017841,51.5638929 C106.017841,50.6759464 106.731246,49.95675 107.612043,49.95675 C108.492841,49.95675 109.206246,50.6759464 109.206246,51.5638929 Z" id="Stroke-542" stroke="#FFFFFF" stroke-width="1.28" stroke-linecap="round"></path>
                    <path d="M98.3656667,58.6517143 C98.3656667,59.3620714 97.794942,59.9374286 97.0903043,59.9374286 C96.3856667,59.9374286 95.814942,59.3620714 95.814942,58.6517143 C95.814942,57.9413571 96.3856667,57.366 97.0903043,57.366 C97.794942,57.366 98.3656667,57.9413571 98.3656667,58.6517143" id="Fill-543" fill="#FFFFFF"></path>
                    <path d="M104.951877,63.6842411 L107.502601,66.2556696" id="Stroke-544" stroke="#FFFFFF" stroke-width="1.28" stroke-linecap="round"></path>
                    <path d="M107.502601,63.6842411 L104.951877,66.2556696" id="Stroke-545" stroke="#FFFFFF" stroke-width="1.28" stroke-linecap="round"></path>
                    <path d="M7.21034058,1.08578571 L9.06678986,0.102214286 C9.11302174,0.0773035714 9.16802174,0.117482143 9.15925362,0.169714286 L8.80454348,2.253375 L10.3987464,3.82033929 L8.19555797,4.14257143 L7.21034058,6.15551786 L6.22512319,4.14257143 L4.14947101,3.83882143 C4.09765942,3.83078571 4.07693478,3.7665 4.11439855,3.72873214 L5.61613768,2.253375 L5.2399058,0.0411428571 L7.21034058,1.08578571 Z" id="Fill-546" fill="#FFFFFF"></path>
                    <path d="M17.2433768,9.47314286 C17.2433768,10.3610893 16.529971,11.0802857 15.6491739,11.0802857 C14.7683768,11.0802857 14.054971,10.3610893 14.054971,9.47314286 C14.054971,8.58519643 14.7683768,7.866 15.6491739,7.866 C16.529971,7.866 17.2433768,8.58519643 17.2433768,9.47314286 Z" id="Stroke-547" stroke="#FFFFFF" stroke-width="1.28" stroke-linecap="round"></path>
                    <path d="M3.13858696,12.366 C3.13858696,13.0763571 2.56786232,13.6517143 1.86322464,13.6517143 C1.15858696,13.6517143 0.587862319,13.0763571 0.587862319,12.366 C0.587862319,11.6556429 1.15858696,11.0802857 1.86322464,11.0802857 C2.56786232,11.0802857 3.13858696,11.6556429 3.13858696,12.366" id="Fill-548" fill="#FFFFFF"></path>
                </g>
            </g>
        </g>
    </g>
</svg>